<svg width="64" height="64" viewBox="0 0 64 64" fill="none" xmlns="http://www.w3.org/2000/svg"><path d="M64 32C64 14.3295 49.6794 0 31.9799 0C14.3206 0 0 14.3295 0 32C0 49.6704 14.3206 63.9999 31.9799 63.9999C49.6794 64.0402 64 49.7106 64 32Z" fill="#333"/><path d="M42.5195 35.7836L40.6289 33.7308L34.3536 34.5358L38.6578 38.6415C37.974 38.8427 37.2097 38.9635 36.4454 38.9635C32.3825 38.9635 29.084 35.7031 29.084 31.678C29.084 27.6528 32.3825 24.3924 36.4454 24.3924C40.5082 24.3924 43.8068 27.6528 43.8068 31.678C43.8068 33.2075 43.3241 34.6163 42.5195 35.7836ZM47.226 40.7748C49.3982 38.3597 50.7257 35.1799 50.7257 31.678C50.7257 24.0302 44.3297 17.8315 36.4454 17.8315C28.561 17.8315 22.165 24.0302 22.165 31.678C22.165 39.3258 28.561 45.5245 36.4454 45.5245C39.0198 45.5245 41.4334 44.8805 43.485 43.7132L45.5365 46.2088L51.6107 45.2025L47.226 40.7748Z" fill="#fff"/><path d="M19.1071 18.6767H12.3491V44.5986H19.1071V18.6767Z" fill="#fff"/></svg>