<svg width="152" height="63" viewBox="0 0 152 63" fill="none" xmlns="http://www.w3.org/2000/svg"><path fill-rule="evenodd" clip-rule="evenodd" d="M140.593 28.2059C130.786 22.5488 108.145 16.7992 98.5753 16.0326L91.3718 15.4511C83.6793 14.8299 79.4365 14.4862 76.185 14.4862C72.9335 14.4862 53.808 16.0326 53.808 16.0326C44.2254 16.786 21.5972 22.5488 11.7899 28.2059C7.19025 30.8626 6.68799 32.7262 6.68799 38.978V54.905C6.68799 56.2003 6.8466 58.0904 8.19477 59.5179C9.75442 61.17 11.7635 61.17 14.1029 61.17H14.2748H138.109H138.28C140.62 61.17 142.629 61.17 144.189 59.5179C145.537 58.0904 145.695 56.2003 145.695 54.905V38.978C145.695 32.7262 145.193 30.8626 140.593 28.2059Z" fill="#007A53"/><path fill-rule="evenodd" clip-rule="evenodd" d="M144.163 54.905C144.163 55.9096 144.057 57.3635 143.105 58.368C141.995 59.5443 140.435 59.5443 138.281 59.5443H138.109H14.2752H14.1034C11.949 59.5443 10.3893 59.5443 9.27907 58.368C8.32742 57.3635 8.22168 55.9096 8.22168 54.905V38.9781C8.22168 32.9377 8.75038 31.801 12.5305 29.6202C22.1792 24.0556 44.4902 18.3986 53.9406 17.6452L61.1441 17.0636C68.8102 16.1913 73.0662 15.9005 76.2516 15.9005C79.437 15.9005 84.2613 16.0988 91.2666 17.0636L98.47 17.6452C107.92 18.3986 130.231 24.0556 139.88 29.6202C143.66 31.801 144.189 32.9377 144.189 38.9781V54.905H144.163Z" fill="#fff"/><path d="M106.281 10.5476L105.383 10.27C105.131 10.2039 99.3422 8.63103 97.4257 8.57816L97.8487 6.26512C97.8751 6.09329 97.809 5.92146 97.6768 5.73642C96.8574 4.62616 88.3322 2.16772 76.0796 2.16772C63.9989 2.16772 55.1433 4.44112 54.3106 5.44564C54.1784 5.60425 54.1255 5.76285 54.1652 5.93468L54.7468 8.56494C52.817 8.61781 47.041 10.1907 46.7899 10.2568L45.8911 10.5343L46.433 11.1556L49.8563 14.7903L49.1162 20.9496L49.0368 21.8088L49.8167 21.6105C50.5304 21.4387 51.3367 21.2008 52.1826 20.9496C54.1388 20.3681 56.3593 19.7072 57.9189 19.7072C57.9322 19.7072 59.0821 19.6808 60.2188 19.5882C60.6153 19.5486 60.84 19.4429 60.8796 19.2314C61.0118 18.7027 59.6768 17.8039 59.3332 17.5792C59.928 17.0505 69.1669 16.046 76.0796 16.0856C76.1854 16.0856 76.2779 16.0856 76.3836 16.0856C83.2831 16.0856 92.3106 17.0769 92.8393 17.5792C92.4956 17.8039 91.1607 18.7027 91.2796 19.2446C91.3325 19.4429 91.544 19.5618 91.9405 19.6015C93.0772 19.7072 94.2271 19.7204 94.2403 19.7204C95.8 19.7204 98.0073 20.3813 99.9767 20.9629C100.823 21.214 101.629 21.4519 102.343 21.6237L103.122 21.822L102.29 14.8168L105.739 11.1688L106.281 10.5476Z" fill="#DA291C"/><path d="M94.2005 16.9843L94.0155 16.8389C93.2885 16.1384 84.0892 15.0281 76.2645 15.1338C68.4266 15.0281 58.659 16.3102 58.1303 17.0636L58.051 17.1561L57.9849 16.905C57.9585 16.7992 55.8437 6.95227 55.7115 6.43679C55.6983 6.38392 55.7511 6.27818 55.8305 6.18566C56.5971 5.20757 65.532 3.27783 76.2645 3.27783C81.0096 3.27783 85.9529 3.80653 90.1825 4.57314C93.5661 5.18114 95.9849 5.84201 96.3946 6.3707C96.4475 6.45001 96.4343 6.5954 96.4211 6.6747C96.3021 7.19018 94.4252 15.9137 94.3988 16.0062L94.2005 16.9843Z" fill="#007A53"/><path d="M56.9672 18.1606L54.9846 9.56934C54.9846 9.56934 54.9582 9.56934 54.945 9.56934C53.425 9.56934 47.8208 11.0761 47.8208 11.0761L51.0062 14.4333L50.3189 20.3679C50.3189 20.3679 52.2486 19.8657 53.121 19.6278C54.1255 19.3502 55.0771 19.0859 55.8966 18.9008C56.5178 18.7686 57.0069 18.729 57.4431 18.7026C57.5356 18.6893 57.7603 18.6761 57.8528 18.6761L57.6678 18.5704L56.9672 18.1606Z" fill="#007A53"/><path d="M95.1781 18.3193L97.1607 9.72803C97.1607 9.72803 97.1871 9.72803 97.2003 9.72803C98.7203 9.72803 104.324 11.2348 104.324 11.2348L101.139 14.592L101.826 20.5266C101.826 20.5266 99.8967 20.0244 99.0243 19.7865C98.0198 19.5089 97.0681 19.2445 96.2487 19.0595C95.6274 18.9273 95.1384 18.8877 94.7022 18.8612C94.6097 18.848 94.385 18.8348 94.2925 18.8348L94.4775 18.7291L95.1781 18.3193Z" fill="#007A53"/><path d="M129.729 34.7089C129.306 34.6296 128.883 34.5503 128.46 34.471C128.566 33.3872 128.698 32.2769 128.804 31.2063C129.359 31.3649 129.914 31.5632 130.469 31.735C130.244 32.6999 129.967 33.7044 129.729 34.7089Z" fill="#DA291C"/><path d="M12.689 36.5724C17.8437 32.713 23.6462 31.3516 23.6462 31.3516L23.6065 36.9557L23.6991 54.9446H19.2316L19.2051 37.339L16.8392 38.2907L16.8789 54.9182L12.689 54.9446V36.5724Z" fill="#DA291C"/><path d="M46.1415 54.9448V30.0432L43.617 30.4397L43.6699 54.9448H39.1099L39.1363 33.0171C39.1363 32.462 39.1099 27.5055 39.1099 27.5055C42.9165 26.5274 50.794 25.5096 50.794 25.5096L50.8205 54.9448H46.1415Z" fill="#DA291C"/><path d="M25.1396 54.9447L25.6551 51.31C25.6551 51.31 25.9856 48.2567 26.131 47.6752L28.2325 29.9507C31.6955 28.8536 34.3125 28.576 34.3125 28.576L36.1894 47.8867L37.0617 54.9447H33.0569L32.2242 46.9218H29.8979L29.1577 54.9447H25.1396ZM30.995 34.8279H30.9553L30.2019 43.472H31.788L30.995 34.8279Z" fill="#DA291C"/><path d="M52.5261 54.9448C52.5261 54.9448 53.1076 48.2568 53.253 47.6752L55.196 24.9545C57.5487 24.6769 61.3024 24.3201 61.3024 24.3201L64.1309 47.8999C64.2235 48.3625 65.0033 54.9448 65.0033 54.9448H60.6019L59.9675 45.7455H57.02L56.5177 54.9448H52.2617H52.5261ZM58.421 31.3914H58.3814L57.324 41.6745H59.5313L58.421 31.3914Z" fill="#DA291C"/><path d="M70.6338 47.2918V28.9725C70.6338 28.4306 70.6998 23.8574 70.6998 23.8574C76.4494 23.5534 81.9214 23.8574 81.9214 23.8574C81.9214 23.8574 81.8818 28.4174 81.8818 28.9725V49.7899H83.4943V54.9183H79.1722V53.2661H73.5812V54.9183H68.9287V49.8296L69.5499 49.8164C69.5499 49.8164 70.6338 49.1423 70.6338 48.0849V47.2918ZM77.5861 27.4658H75.2202V47.2125C75.2202 48.5343 75.088 48.9704 74.8237 49.7371H77.5861V27.4658Z" fill="#DA291C"/><path d="M95.0988 36.9954L97.9273 24.9676C99.4737 25.0998 102.382 25.5756 102.382 25.5756L98.5353 39.7843L101.959 54.9578H97.7555L95.5614 42.322H95.5217L95.6936 54.9578H90.8428L90.8824 43.4455L90.8428 42.322L89.0056 54.9578H84.7364L87.7103 39.9032L84.9478 30.5453C84.2473 27.8093 83.3882 23.9234 83.3882 23.9234C84.4456 23.9102 87.6045 24.201 87.6045 24.201L90.8824 37.0086L90.8428 24.2935C91.6887 24.3067 95.4292 24.7429 95.4292 24.7429L95.0988 36.9954Z" fill="#DA291C"/><path d="M108.026 55.0504C104.827 55.0504 102.62 53.0678 102.62 49.6048V31.1137C102.62 27.6375 104.827 25.9193 108.026 26.1043C112.335 26.3422 113.419 28.2588 113.419 31.7349V49.6048C113.419 53.081 111.211 55.0504 108.026 55.0504ZM108.026 50.9134C108.951 50.9134 108.898 49.9221 108.898 49.8163V31.4838C108.898 31.3913 108.951 30.4 108.026 30.4C107.088 30.4 107.14 31.3781 107.14 31.4838V49.8163C107.14 49.9088 107.088 50.9134 108.026 50.9134Z" fill="#DA291C"/><path d="M122.671 54.9447L122.644 45.6H120.106L120.12 54.9447H115.348V27.8887L120.093 29.1708L120.106 40.7228H122.644V29.6201L127.389 30.9948V54.9447H122.671Z" fill="#DA291C"/><path d="M134.712 38.1453C133.747 38.1453 133.866 39.1763 133.866 39.7843V50.411C133.866 51.019 133.747 52.05 134.712 52.05C135.676 52.05 135.888 51.0058 135.888 50.411V48.7324H139.443C139.443 48.7324 139.576 52.1161 138.611 53.4114C137.646 54.7199 136.919 55.1957 135.042 55.2486C133.178 55.3015 131.394 54.8917 130.469 54.0194C129.187 52.8298 129.24 51.2702 129.24 49.6444V38.9912C129.24 37.6695 129.411 35.9909 130.495 35.0921C131.5 34.2594 133.152 34.299 134.91 34.3651C136.681 34.4312 138.915 35.3036 139.205 36.8632C139.496 38.4229 139.443 41.2778 139.443 41.2778H135.888V39.7843C135.888 39.1763 135.676 38.1453 134.712 38.1453Z" fill="#DA291C"/><path d="M60.1782 7.2299L65.1744 6.45007L66.1525 12.7416L64.8836 12.9398L64.0641 7.70573L61.6057 8.08903L62.4252 13.3231L61.1563 13.5214L60.1782 7.2299Z" fill="#fff"/><path d="M66.8662 6.25162L68.069 6.1591L68.4126 10.3887L70.6464 5.96084L71.9285 5.8551L72.4307 12.1994L71.2147 12.292L70.8843 8.15493L68.6506 12.5035L67.3685 12.6092L66.8662 6.25162Z" fill="#fff"/><path d="M73.6074 5.77591H74.8895L74.9159 11.0761L77.414 11.0629L77.3876 5.7627H78.6697L78.6961 11.0629H79.2248L79.238 13.5213H78.1674V12.1335L73.6471 12.1599L73.6074 5.77591Z" fill="#fff"/><path d="M80.5067 5.81567L81.7887 5.92141L81.3658 11.1952L83.8507 11.3934L84.2736 6.11967L85.5557 6.22541L85.1327 11.4992L85.6614 11.5388L85.4632 13.984L84.3926 13.9047L84.4983 12.5169L80.0044 12.16L80.5067 5.81567Z" fill="#fff"/><path d="M91.9526 13.7063L90.578 13.4684L90.2872 11.9484L87.7759 11.5123L87.0093 12.8472L85.6611 12.6093L89.2034 6.76721L90.5384 7.00513L91.9526 13.7063ZM90.0625 10.8117L89.6131 8.34008L88.3575 10.521L90.0625 10.8117Z" fill="#fff"/><path d="M143.845 27.9549C142.576 27.9549 141.638 26.9636 141.638 25.7343C141.638 24.5051 142.576 23.5006 143.845 23.5006C145.114 23.5006 146.052 24.5051 146.052 25.7343C146.052 26.9636 145.101 27.9549 143.845 27.9549ZM143.845 23.831C142.748 23.831 141.981 24.677 141.981 25.7343C141.981 26.7785 142.748 27.6377 143.845 27.6377C144.942 27.6377 145.709 26.7785 145.709 25.7343C145.709 24.677 144.942 23.831 143.845 23.831ZM144.598 26.7521C144.308 26.7521 144.202 26.6728 144.202 26.4349V26.1705C144.202 25.9987 144.123 25.8797 143.938 25.8797H143.554V26.7257H143.171V24.7166H143.977C144.413 24.7166 144.572 24.9281 144.572 25.2585V25.3246C144.572 25.5757 144.493 25.7079 144.242 25.7608C144.479 25.7872 144.585 25.9855 144.585 26.1837V26.4084C144.585 26.4745 144.612 26.4877 144.691 26.4877V26.7521H144.598ZM144.189 25.2585C144.189 25.1263 144.136 25.0206 143.951 25.0206H143.567V25.6286H143.924C144.096 25.6286 144.189 25.5361 144.189 25.351V25.2585Z" fill="#007A53"/></svg>