<svg width="181" height="181" viewBox="0 0 181 181" fill="none" xmlns="http://www.w3.org/2000/svg"><path fill="#fff" d="M29 29H153V153H29z"/><path d="M165.917 49.3978C165.832 46.1442 165.58 42.897 165.163 39.6691C164.6 36.8419 163.661 34.1026 162.372 31.5241C161.024 28.7269 159.214 26.1772 157.018 23.9824C154.801 21.812 152.256 20.0049 149.476 18.6278C146.894 17.3642 144.155 16.4511 141.331 15.9128C138.134 15.4339 134.91 15.1569 131.678 15.0833H49.3981C46.1444 15.168 42.8972 15.4197 39.6693 15.8374C36.8421 16.4005 34.1029 17.339 31.5243 18.6278C28.7272 19.9758 26.1775 21.7861 23.9827 23.9824C21.8122 26.199 20.0051 28.7442 18.6281 31.5241C17.3644 34.1061 16.4514 36.8453 15.9131 39.6691C15.4342 42.8663 15.1571 46.0904 15.0835 49.3224C15.0835 50.7553 15.0835 52.7916 15.0835 53.3949V127.605C15.0835 128.435 15.0835 130.245 15.0835 131.602C15.1682 134.856 15.42 138.103 15.8377 141.331C16.4008 144.158 17.3392 146.897 18.6281 149.476C19.9761 152.273 21.7863 154.823 23.9827 157.017C26.1992 159.188 28.7444 160.995 31.5243 162.372C34.1063 163.636 36.8455 164.549 39.6693 165.087C42.8665 165.566 46.0907 165.843 49.3227 165.917H131.602C134.856 165.832 138.103 165.58 141.331 165.162C144.158 164.599 146.897 163.661 149.476 162.372C152.273 161.024 154.823 159.214 157.018 157.017C159.188 154.801 160.995 152.256 162.372 149.476C163.636 146.894 164.549 144.155 165.087 141.331C165.566 138.134 165.843 134.909 165.917 131.677C165.917 130.244 165.917 128.435 165.917 127.605V53.3949C165.917 52.7916 165.917 50.7553 165.917 49.3978ZM92.2347 143.292C83.1777 143.247 74.279 140.912 66.3668 136.504L37.7085 144.046L45.2502 115.991C40.3866 107.819 37.7838 98.5008 37.7085 88.9916C37.7385 78.3045 40.9303 67.8652 46.8819 58.9886C52.8334 50.112 61.2786 43.195 71.1537 39.1089C81.0289 35.0227 91.8923 33.95 102.376 36.026C112.86 38.102 122.494 43.2337 130.067 50.775C137.64 58.3162 142.811 67.9296 144.931 78.4045C147.051 88.8793 146.023 99.7472 141.978 109.639C137.933 119.531 131.051 128.005 122.199 133.994C113.348 139.982 102.922 143.217 92.2347 143.292ZM92.2347 44.2695C84.2391 44.361 76.4106 46.5696 69.5461 50.6704C62.6816 54.7712 57.0263 60.6178 53.1561 67.6149C49.2858 74.612 47.3388 82.5097 47.5133 90.5039C47.6878 98.4981 49.9775 106.303 54.1493 113.125L55.2052 114.86L50.6802 131.376L67.8752 126.7L69.5343 127.68C76.394 131.721 84.1983 133.88 92.1593 133.94C104.16 133.94 115.67 129.173 124.156 120.687C132.642 112.2 137.409 100.691 137.409 88.6899C137.409 76.6889 132.642 65.1794 124.156 56.6933C115.67 48.2073 104.16 43.4399 92.1593 43.4399L92.2347 44.2695ZM118.631 108.525C117.643 110.172 116.32 111.594 114.748 112.698C113.176 113.802 111.39 114.564 109.505 114.935C106.689 115.45 103.789 115.268 101.058 114.407C98.4894 113.604 95.971 112.647 93.5168 111.541C84.1934 106.863 76.2422 99.847 70.4393 91.1787C67.286 87.1626 65.3727 82.3138 64.9339 77.2266C64.889 75.1133 65.2888 73.0142 66.1073 71.0654C66.9258 69.1166 68.1448 67.3615 69.6852 65.9141C70.1389 65.3997 70.6955 64.9862 71.3191 64.7004C71.9427 64.4146 72.6193 64.2628 73.3052 64.2549H75.4168C76.2464 64.2549 77.3777 64.2549 78.4335 66.5928C79.4893 68.9308 82.2797 75.9445 82.6568 76.6233C82.8421 76.9851 82.9388 77.3857 82.9388 77.7922C82.9388 78.1987 82.8421 78.5994 82.6568 78.9612C82.3234 79.7807 81.8655 80.5438 81.2993 81.2237C80.6206 82.0533 79.8664 83.0337 79.2631 83.637C78.6598 84.2403 77.9056 84.9945 78.6598 86.352C80.7117 89.8151 83.2517 92.9646 86.2014 95.7037C89.4136 98.542 93.0862 100.812 97.0614 102.416C98.4189 103.095 99.2485 103.019 100.003 102.416C100.757 101.812 103.396 98.4941 104.301 97.1366C105.206 95.7791 106.111 96.0053 107.318 96.4578C108.525 96.9103 115.237 100.153 116.594 100.832C117.952 101.511 118.781 101.812 119.159 102.416C119.486 104.39 119.304 106.414 118.631 108.298V108.525Z" fill="#29A71A"/></svg>